<?xml version="1.0" encoding="UTF-8"?>
<svg xmlns="http://www.w3.org/2000/svg" xmlns:xlink="http://www.w3.org/1999/xlink" width="25pt" height="25pt" viewBox="0 0 25 25" version="1.1">
<g id="surface1">
<path style=" stroke:none;fill-rule:nonzero;fill:rgb(22.352941%,31.764706%,52.156863%);fill-opacity:1;" d="M 23.621094 25 C 24.382812 25 25 24.382812 25 23.621094 L 25 1.378906 C 25 0.617188 24.382812 0 23.621094 0 L 1.378906 0 C 0.617188 0 0 0.617188 0 1.378906 L 0 23.621094 C 0 24.382812 0.617188 25 1.378906 25 L 23.621094 25 "/>
<path style=" stroke:none;fill-rule:nonzero;fill:rgb(100%,100%,100%);fill-opacity:1;" d="M 17.25 25 L 17.25 15.320312 L 20.5 15.320312 L 20.984375 11.546875 L 17.25 11.546875 L 17.25 9.136719 C 17.25 8.042969 17.554688 7.300781 19.121094 7.300781 L 21.117188 7.300781 L 21.117188 3.925781 C 20.773438 3.878906 19.585938 3.777344 18.207031 3.777344 C 15.324219 3.777344 13.351562 5.535156 13.351562 8.761719 L 13.351562 11.546875 L 10.09375 11.546875 L 10.09375 15.320312 L 13.351562 15.320312 L 13.351562 25 L 17.25 25 "/>
</g>
</svg>
