<?xml version="1.0" encoding="UTF-8"?>
<svg xmlns="http://www.w3.org/2000/svg" xmlns:xlink="http://www.w3.org/1999/xlink" width="25pt" height="25pt" viewBox="0 0 25 25" version="1.1">
<g id="surface1">
<path style=" stroke:none;fill-rule:nonzero;fill:rgb(3.921569%,3.921569%,3.137255%);fill-opacity:1;" d="M 12.5 2.253906 C 15.835938 2.253906 16.234375 2.265625 17.550781 2.324219 C 18.769531 2.378906 19.429688 2.585938 19.871094 2.753906 C 20.457031 2.980469 20.871094 3.253906 21.308594 3.691406 C 21.746094 4.128906 22.019531 4.542969 22.246094 5.128906 C 22.414062 5.570312 22.621094 6.230469 22.675781 7.449219 C 22.734375 8.765625 22.746094 9.164062 22.746094 12.5 C 22.746094 15.835938 22.734375 16.234375 22.675781 17.550781 C 22.621094 18.769531 22.414062 19.433594 22.246094 19.871094 C 22.019531 20.457031 21.746094 20.871094 21.308594 21.308594 C 20.871094 21.746094 20.457031 22.019531 19.871094 22.246094 C 19.429688 22.414062 18.769531 22.621094 17.550781 22.675781 C 16.234375 22.734375 15.835938 22.746094 12.5 22.746094 C 9.164062 22.746094 8.765625 22.734375 7.449219 22.675781 C 6.230469 22.621094 5.566406 22.414062 5.128906 22.246094 C 4.542969 22.019531 4.128906 21.746094 3.691406 21.308594 C 3.253906 20.871094 2.980469 20.457031 2.753906 19.871094 C 2.585938 19.433594 2.378906 18.769531 2.324219 17.550781 C 2.265625 16.234375 2.253906 15.835938 2.253906 12.5 C 2.253906 9.164062 2.265625 8.765625 2.324219 7.449219 C 2.378906 6.230469 2.585938 5.570312 2.753906 5.128906 C 2.980469 4.542969 3.253906 4.128906 3.691406 3.691406 C 4.128906 3.253906 4.542969 2.980469 5.128906 2.753906 C 5.566406 2.585938 6.230469 2.378906 7.449219 2.324219 C 8.765625 2.265625 9.164062 2.253906 12.5 2.253906 M 12.5 0 C 9.105469 0 8.679688 0.015625 7.347656 0.0742188 C 6.015625 0.136719 5.105469 0.347656 4.3125 0.65625 C 3.488281 0.976562 2.792969 1.402344 2.097656 2.097656 C 1.402344 2.792969 0.976562 3.488281 0.65625 4.3125 C 0.347656 5.105469 0.136719 6.015625 0.0742188 7.347656 C 0.015625 8.679688 0 9.105469 0 12.5 C 0 15.894531 0.015625 16.320312 0.0742188 17.652344 C 0.136719 18.984375 0.347656 19.894531 0.65625 20.6875 C 0.976562 21.511719 1.402344 22.207031 2.097656 22.902344 C 2.792969 23.597656 3.488281 24.023438 4.3125 24.34375 C 5.105469 24.652344 6.015625 24.863281 7.347656 24.925781 C 8.679688 24.984375 9.105469 25 12.5 25 C 15.894531 25 16.320312 24.984375 17.652344 24.925781 C 18.984375 24.863281 19.894531 24.652344 20.6875 24.34375 C 21.511719 24.023438 22.207031 23.597656 22.902344 22.902344 C 23.597656 22.207031 24.023438 21.511719 24.34375 20.6875 C 24.652344 19.894531 24.863281 18.984375 24.925781 17.652344 C 24.984375 16.320312 25 15.894531 25 12.5 C 25 9.105469 24.984375 8.679688 24.925781 7.347656 C 24.863281 6.015625 24.652344 5.105469 24.34375 4.3125 C 24.023438 3.488281 23.597656 2.792969 22.902344 2.097656 C 22.207031 1.402344 21.511719 0.976562 20.6875 0.65625 C 19.894531 0.347656 18.984375 0.136719 17.652344 0.0742188 C 16.320312 0.015625 15.894531 0 12.5 0 Z M 12.5 6.082031 C 8.953125 6.082031 6.082031 8.953125 6.082031 12.5 C 6.082031 16.046875 8.953125 18.917969 12.5 18.917969 C 16.046875 18.917969 18.917969 16.046875 18.917969 12.5 C 18.917969 8.953125 16.046875 6.082031 12.5 6.082031 Z M 12.5 16.667969 C 10.199219 16.667969 8.332031 14.800781 8.332031 12.5 C 8.332031 10.199219 10.199219 8.332031 12.5 8.332031 C 14.800781 8.332031 16.667969 10.199219 16.667969 12.5 C 16.667969 14.800781 14.800781 16.667969 12.5 16.667969 Z M 20.671875 5.828125 C 20.671875 6.65625 20 7.328125 19.171875 7.328125 C 18.34375 7.328125 17.671875 6.65625 17.671875 5.828125 C 17.671875 5 18.34375 4.328125 19.171875 4.328125 C 20 4.328125 20.671875 5 20.671875 5.828125 Z M 20.671875 5.828125 "/>
</g>
</svg>
