<?xml version="1.0" encoding="UTF-8"?>
<svg xmlns="http://www.w3.org/2000/svg" xmlns:xlink="http://www.w3.org/1999/xlink" width="25pt" height="25pt" viewBox="0 0 25 25" version="1.1">
<g id="surface1">
<path style=" stroke:none;fill-rule:nonzero;fill:rgb(79.607843%,12.156863%,15.294118%);fill-opacity:1;" d="M 0 12.5 C 0 17.617188 3.078125 22.015625 7.480469 23.949219 C 7.445312 23.078125 7.476562 22.027344 7.699219 21.078125 C 7.941406 20.0625 9.308594 14.265625 9.308594 14.265625 C 9.308594 14.265625 8.910156 13.46875 8.910156 12.289062 C 8.910156 10.4375 9.984375 9.054688 11.320312 9.054688 C 12.457031 9.054688 13.007812 9.90625 13.007812 10.929688 C 13.007812 12.074219 12.277344 13.78125 11.902344 15.367188 C 11.589844 16.691406 12.566406 17.773438 13.875 17.773438 C 16.242188 17.773438 17.839844 14.730469 17.839844 11.128906 C 17.839844 8.386719 15.992188 6.339844 12.636719 6.339844 C 8.84375 6.339844 6.484375 9.164062 6.484375 12.324219 C 6.484375 13.414062 6.804688 14.179688 7.308594 14.777344 C 7.539062 15.050781 7.570312 15.160156 7.488281 15.472656 C 7.425781 15.703125 7.289062 16.257812 7.230469 16.476562 C 7.148438 16.792969 6.890625 16.90625 6.605469 16.789062 C 4.859375 16.074219 4.046875 14.164062 4.046875 12.011719 C 4.046875 8.460938 7.042969 4.203125 12.980469 4.203125 C 17.753906 4.203125 20.894531 7.65625 20.894531 11.363281 C 20.894531 16.269531 18.167969 19.933594 14.148438 19.933594 C 12.800781 19.933594 11.53125 19.203125 11.09375 18.375 C 11.09375 18.375 10.371094 21.253906 10.214844 21.808594 C 9.949219 22.773438 9.433594 23.738281 8.957031 24.488281 C 10.082031 24.820312 11.269531 25 12.5 25 C 19.402344 25 25 19.402344 25 12.5 C 25 5.597656 19.402344 0 12.5 0 C 5.597656 0 0 5.597656 0 12.5 Z M 0 12.5 "/>
</g>
</svg>
