<?xml version="1.0" encoding="UTF-8"?>
<svg xmlns="http://www.w3.org/2000/svg" xmlns:xlink="http://www.w3.org/1999/xlink" width="30pt" height="25pt" viewBox="0 0 30 25" version="1.1">
<g id="surface1">
<path style=" stroke:none;fill-rule:nonzero;fill:rgb(33.333333%,67.45098%,93.333333%);fill-opacity:1;" d="M 30 3.042969 C 28.894531 3.542969 27.710938 3.882812 26.464844 4.035156 C 27.734375 3.257812 28.710938 2.023438 29.171875 0.558594 C 27.980469 1.277344 26.664062 1.800781 25.261719 2.082031 C 24.140625 0.859375 22.539062 0.0976562 20.769531 0.0976562 C 17.371094 0.0976562 14.613281 2.910156 14.613281 6.378906 C 14.613281 6.875 14.667969 7.351562 14.773438 7.8125 C 9.660156 7.550781 5.125 5.050781 2.089844 1.25 C 1.558594 2.175781 1.253906 3.253906 1.253906 4.40625 C 1.253906 6.585938 2.34375 8.507812 3.992188 9.636719 C 2.984375 9.601562 2.035156 9.320312 1.207031 8.851562 C 1.203125 8.875 1.203125 8.902344 1.203125 8.929688 C 1.203125 11.972656 3.328125 14.511719 6.140625 15.089844 C 5.625 15.234375 5.082031 15.308594 4.519531 15.308594 C 4.125 15.308594 3.738281 15.269531 3.363281 15.195312 C 4.144531 17.691406 6.417969 19.507812 9.113281 19.558594 C 7.003906 21.246094 4.351562 22.25 1.46875 22.25 C 0.972656 22.25 0.480469 22.21875 0 22.160156 C 2.722656 23.945312 5.960938 24.984375 9.433594 24.984375 C 20.753906 24.984375 26.945312 15.410156 26.945312 7.109375 C 26.945312 6.835938 26.941406 6.566406 26.929688 6.296875 C 28.132812 5.410156 29.175781 4.304688 30 3.042969 "/>
</g>
</svg>
